<?xml version="1.0" encoding="UTF-8"?>
<svg width="1200pt" height="1200pt" version="1.1" viewBox="0 0 1200 1200" xmlns="http://www.w3.org/2000/svg">
 <path d="m1068.7 93.75h-937.5c-62.109 0.09375-112.41 50.391-112.5 112.5v787.5c0.09375 62.109 50.391 112.41 112.5 112.5h937.5c62.109-0.09375 112.41-50.391 112.5-112.5v-787.5c-0.09375-62.109-50.391-112.41-112.5-112.5zm37.5 900c0 20.719-16.781 37.5-37.5 37.5h-937.5c-20.719 0-37.5-16.781-37.5-37.5v-600h937.5c20.719 0 37.5-16.781 37.5-37.5s-16.781-37.5-37.5-37.5h-937.5v-112.5c0-20.719 16.781-37.5 37.5-37.5h937.5c20.719 0 37.5 16.781 37.5 37.5zm-745.31-402.74v210.19c0 20.719-16.781 37.5-37.5 37.5s-37.5-16.781-37.5-37.5v-67.594h-32.812v67.594c0 20.719-16.781 37.5-37.5 37.5s-37.5-16.781-37.5-37.5v-210.19c0-20.719 16.781-37.5 37.5-37.5s37.5 16.781 37.5 37.5v67.594h32.812v-67.594c0-20.719 16.781-37.5 37.5-37.5s37.5 16.781 37.5 37.5zm222.66-0.375c0 9.9375-3.9375 19.5-10.969 26.531s-16.594 10.969-26.531 10.969h-18.75v173.44c0 20.719-16.781 37.5-37.5 37.5s-37.5-16.781-37.5-37.5v-173.44h-18.75c-20.719 0-37.5-16.781-37.5-37.5s16.781-37.5 37.5-37.5h112.5c9.9375 0 19.5 3.9375 26.531 10.969s10.969 16.594 10.969 26.531zm334.03-37.125h-42.656c-20.719 0-37.5 16.781-37.5 37.5v210.19c0 20.719 16.781 37.5 37.5 37.5 20.672 0 37.5-16.781 37.5-37.5v-36.656c65.203 0 109.88-46.922 109.88-106.31-0.09375-57.844-46.922-104.67-104.72-104.72zm0 136.03h-5.1562v-61.031h5.1562c16.406 0 29.672 13.312 29.672 29.719 0 19.734-14.578 31.312-29.672 31.312zm-113.72-98.906c0 9.9375-3.9375 19.5-10.969 26.531s-16.594 10.969-26.531 10.969h-18.75v173.44c0 20.719-16.781 37.5-37.5 37.5s-37.5-16.781-37.5-37.5v-173.44h-18.75c-20.719 0-37.5-16.781-37.5-37.5s16.781-37.5 37.5-37.5h112.5c9.9375 0 19.5 3.9375 26.531 10.969s10.969 16.594 10.969 26.531zm-627.84-310.13c-14.859 3-30.047-3.2812-38.484-15.891s-8.4375-29.062 0-41.672c8.3906-12.609 23.578-18.938 38.484-15.984 14.859 2.9531 26.484 14.578 29.438 29.484 1.9688 9.75-0.046875 19.875-5.5312 28.125-5.5312 8.2969-14.109 14.016-23.906 15.938zm112.5 0c-14.859 3-30.047-3.2812-38.484-15.891s-8.4375-29.062 0-41.672c8.3906-12.609 23.578-18.938 38.484-15.984 14.859 2.9531 26.484 14.578 29.438 29.484 1.9688 9.75-0.046875 19.875-5.5312 28.125-5.5312 8.2969-14.109 14.016-23.906 15.938zm112.5 0c-14.859 3-30.047-3.2812-38.484-15.891s-8.4375-29.062 0-41.672c8.3906-12.609 23.578-18.938 38.484-15.984 14.859 2.9531 26.484 14.578 29.438 29.484 1.9688 9.75-0.046875 19.875-5.5312 28.125-5.5312 8.2969-14.109 14.016-23.906 15.938z"/>
</svg>
