<?xml version="1.0" encoding="utf-8"?>
<svg xmlns="http://www.w3.org/2000/svg" viewBox="23.298 16.64 439.97 473.219" width="439.97px" height="473.219px">
  <path d="M 136.998 229.735 C 139.146 232.955 142.365 234.029 145.584 234.029 C 148.807 234.029 152.026 232.955 154.173 229.735 L 186.373 186.801 C 189.593 182.506 188.52 174.993 184.227 171.774 C 179.934 168.552 172.419 169.627 169.2 173.92 L 156.32 191.093 L 156.32 115.952 C 156.32 109.512 160.612 105.219 167.054 105.219 L 199.254 105.219 C 205.694 105.219 209.988 100.926 209.988 94.485 C 209.988 88.045 205.694 83.751 199.254 83.751 L 167.054 83.751 C 148.807 83.751 134.852 97.704 134.852 115.952 L 134.852 191.093 L 121.973 173.92 C 118.751 169.627 111.237 168.552 106.945 171.774 C 102.651 174.993 101.577 182.506 104.799 186.801 L 136.998 229.735 Z M 454.715 281.257" style="" transform="matrix(1, 0, 0, 1, 1.1368683772161603e-13, 0)"/>
  <path d="M 257.168 294.967 L 257.168 450.881 C 257.168 472.968 240.278 489.859 218.19 489.859 L 62.276 489.859 C 40.189 489.859 23.298 472.968 23.298 450.881 L 23.298 294.967 C 23.298 272.879 40.189 255.989 62.276 255.989 L 218.19 255.989 C 240.278 255.989 257.168 272.879 257.168 294.967 Z M 192.205 333.948 C 192.205 326.149 187.008 320.952 179.209 320.952 L 101.255 320.952 C 93.46 320.952 88.264 326.149 88.264 333.948 L 88.264 346.938 C 88.264 354.735 93.46 359.931 101.255 359.931 C 109.051 359.931 114.248 354.735 114.248 346.938 L 127.241 346.938 L 127.241 398.909 C 119.443 398.909 114.248 404.106 114.248 411.902 C 114.248 419.697 119.443 424.893 127.241 424.893 L 153.226 424.893 C 161.02 424.893 166.219 419.697 166.219 411.902 C 166.219 404.106 161.02 398.909 153.226 398.909 L 153.226 346.938 L 166.219 346.938 C 166.219 354.735 171.416 359.931 179.209 359.931 C 187.008 359.931 192.205 354.735 192.205 346.938 L 192.205 333.948 Z" style="" transform="matrix(1, 0, 0, 1, 1.1368683772161603e-13, 0)"/>
  <path d="M 456.106 217.009 L 313.019 217.009 C 309.069 217.009 305.864 213.803 305.864 209.853 L 305.864 30.953 C 305.864 23.045 312.276 16.64 320.175 16.64 L 413.615 16.64 C 417.157 16.64 420.565 17.951 423.199 20.32 L 458.527 52.127 C 461.543 54.837 463.268 58.703 463.268 62.761 L 463.268 209.853 C 463.268 213.803 460.062 217.009 456.118 217.009 L 456.106 217.009 Z M 448.955 62.761 L 413.615 30.953 L 320.175 30.953 L 320.175 202.699 L 448.955 202.699 L 448.955 62.761 Z M 356.528 76.98 C 352.778 78.211 348.729 76.172 347.49 72.422 C 346.253 68.673 348.299 64.622 352.049 63.384 L 362.511 59.935 C 364.692 59.219 367.085 59.591 368.945 60.935 C 370.805 62.281 371.907 64.436 371.907 66.732 L 371.907 109.669 C 371.907 113.62 368.701 116.825 364.75 116.825 C 360.801 116.825 357.595 113.62 357.595 109.669 L 357.595 76.622 L 356.528 76.98 Z M 368.601 122.551 C 373.703 122.551 378.519 124.833 382.348 129.033 C 386.898 134.051 390.069 142.059 390.069 151.176 C 390.069 160.292 386.898 168.3 382.348 173.315 C 378.519 177.517 373.703 179.799 368.601 179.799 C 363.499 179.799 358.683 177.517 354.855 173.315 C 350.303 168.3 347.132 160.292 347.132 151.176 C 347.132 142.059 350.303 134.051 354.855 129.033 C 358.683 124.834 363.499 122.551 368.601 122.551 Z M 368.601 136.862 C 366.876 136.862 365.566 138.272 364.435 139.969 C 362.525 142.831 361.446 146.81 361.446 151.176 C 361.446 155.541 362.525 159.519 364.435 162.38 C 365.566 164.076 366.876 165.487 368.601 165.487 C 370.318 165.487 371.635 164.076 372.765 162.38 C 374.668 159.518 375.757 155.541 375.757 151.176 C 375.757 146.81 374.668 142.831 372.765 139.969 C 371.635 138.272 370.318 136.862 368.601 136.862 Z M 400.536 59.578 C 405.635 59.578 410.454 61.86 414.277 66.061 C 418.827 71.078 421.999 79.084 421.999 88.203 C 421.999 97.319 418.827 105.327 414.277 110.343 C 410.454 114.543 405.635 116.826 400.536 116.826 C 395.424 116.826 390.614 114.543 386.786 110.343 C 382.235 105.326 379.064 97.319 379.064 88.203 C 379.064 79.084 382.235 71.078 386.786 66.061 C 390.614 61.86 395.424 59.578 400.536 59.578 Z M 400.536 73.89 C 398.809 73.89 397.497 75.298 396.366 76.996 C 394.461 79.858 393.374 83.837 393.374 88.202 C 393.374 92.566 394.461 96.547 396.366 99.408 C 397.497 101.104 398.809 102.513 400.536 102.513 C 402.262 102.513 403.562 101.104 404.694 99.408 C 406.61 96.544 407.686 92.566 407.686 88.202 C 407.686 83.837 406.61 79.858 404.694 76.996 C 403.562 75.298 402.262 73.89 400.536 73.89 Z M 402.778 141.386 C 399.022 142.617 394.977 140.578 393.732 136.828 C 392.499 133.078 394.539 129.028 398.294 127.79 L 408.751 124.341 C 410.937 123.626 413.336 123.998 415.196 125.343 C 417.044 126.688 418.154 128.842 418.154 131.14 L 418.154 174.076 C 418.154 178.026 414.949 181.233 410.993 181.233 C 407.048 181.233 403.842 178.026 403.842 174.076 L 403.842 141.03 L 402.778 141.386 Z" fill-rule="evenodd" style="" transform="matrix(1, 0, 0, 1, 1.1368683772161603e-13, 0)"/>
</svg>