<?xml version="1.0" encoding="UTF-8"?>
<svg version="1.1" viewBox="0 0 1200 1200" xmlns="http://www.w3.org/2000/svg">
 <path d="m975 75h-750c-82.707 0-150 67.293-150 150v412.5c0 82.707 67.293 150 150 150h750c82.707 0 150-67.293 150-150v-412.5c0-82.707-67.293-150-150-150zm-675.54 210.8-75 300c-2.125 8.5312-9.7773 14.211-18.199 14.211-1.5 0-3.0039-0.18359-4.543-0.55078-10.07-2.5273-16.148-12.707-13.66-22.742l75-300c2.4922-10.07 12.488-16.148 22.742-13.66 10.07 2.5273 16.148 12.711 13.66 22.742zm140.18 86.363c-2.7109 1.3555-5.5664 1.9805-8.3867 1.9805-6.8477 0-13.477-3.8086-16.773-10.363l-20.727-41.457-20.727 41.457c-4.6523 9.2656-15.82 13.109-25.16 8.3867-9.2656-4.6523-13-15.895-8.3867-25.16l37.5-75c6.3711-12.672 27.172-12.672 33.547 0l37.5 75c4.6133 9.2656 0.87891 20.508-8.3867 25.156zm179.11 190.34c10.363 0 18.75 8.3867 18.75 18.75s-8.3867 18.75-18.75 18.75h-75c-10.363 0-18.75-8.3867-18.75-18.75v-300c0-10.363 8.3867-18.75 18.75-18.75h75c10.363 0 18.75 8.3867 18.75 18.75s-8.3867 18.75-18.75 18.75h-56.25v262.5zm206.25 18.75c0 10.363-8.3867 18.75-18.75 18.75h-75c-10.363 0-18.75-8.3867-18.75-18.75s8.3867-18.75 18.75-18.75h56.25v-262.5h-56.25c-10.363 0-18.75-8.3867-18.75-18.75s8.3867-18.75 18.75-18.75h75c10.363 0 18.75 8.3867 18.75 18.75zm186.96-295.46-75 300c-2.125 8.5312-9.7773 14.207-18.203 14.207-1.5 0-3.0039-0.18359-4.543-0.55078-10.07-2.5273-16.148-12.707-13.66-22.742l75-300c2.4922-10.07 12.488-16.148 22.742-13.66 10.074 2.5312 16.152 12.711 13.664 22.746z"/>
 <path d="m893.15 1065.9-63.281-89.852c-13.238-23.875-38.051-38.559-65.551-38.559h-51.82v37.5c0 41.363-33.637 75-75 75h-75c-41.363 0-75-33.637-75-75v-37.5h-51.82c-27.504 0-52.312 14.684-65.551 38.562l-63.281 89.852c-8.0742 11.445-9.082 26.422-2.6367 38.855 6.4453 12.43 19.281 20.23 33.289 20.23h525c14.008 0 26.844-7.8008 33.289-20.234 6.4453-12.434 5.4375-27.41-2.6367-38.855z"/>
 <path d="m637.5 1012.5h-75c-20.711 0-37.5-16.789-37.5-37.5v-150h150v150c0 20.711-16.789 37.5-37.5 37.5z"/>
</svg>
