<?xml version="1.0" encoding="UTF-8"?>
<svg version="1.1" viewBox="0 0 1200 1200" xmlns="http://www.w3.org/2000/svg">
 <path d="m987.6 93.75h-541.69v183.19c0 32.625-27.488 59.137-61.238 59.137h-197.18v748.54c0 11.926 11.137 21.637 24.898 21.637h268.39c-1.4609-4.9883-2.4375-10.164-2.4375-15.676v-239.02h-78.711c-19.574 0-36.824-11.773-45.039-30.789-8.5508-19.762-5.1016-42.824 8.7383-58.688l200.48-229.57c18.676-21.375 53.738-21.414 72.449 0.039062l200.4 229.5c0.039063 0 0.039063 0 0.039063 0.039063 13.836 15.898 17.289 38.926 8.7383 58.688-8.2109 19.012-25.461 30.789-45.039 30.789h-78.711v239.02c0 5.4766-1.0117 10.688-2.4375 15.676h268.39c13.727 0 24.898-9.7109 24.898-21.637l0.003906-969.23c-0.039062-11.926-11.176-21.637-24.938-21.637z"/>
 <path d="m409.54 276.94v-159.56l-193.2 181.2h168.34c13.727 0 24.867-9.7109 24.867-21.637z"/>
 <path d="m812.21 805.46c2.1758-4.9883 2.5859-12.414-2.5508-18.336l-200.44-229.54c-2.5117-2.8867-5.7734-4.4609-9.2227-4.4609s-6.7109 1.5742-9.1875 4.4258l-200.48 229.57c-5.1367 5.9258-4.7266 13.352-2.5508 18.336 1.0859 2.5859 4.4609 8.5859 11.812 8.5859h94.461c10.051 0 20.586 11.023 20.586 21.375v255.15c0 8.625 5.9609 15.676 13.273 15.676h144.07c7.3125 0 13.273-7.0508 13.273-15.676v-255.15c0-10.352 10.539-21.375 20.586-21.375h94.461c7.4375 0.003906 10.812-5.9609 11.898-8.5859z"/>
</svg>
