<?xml version="1.0" encoding="UTF-8"?>
<svg width="1200pt" height="1200pt" version="1.1" viewBox="0 0 1200 1200" xmlns="http://www.w3.org/2000/svg">
 <path d="m1107.7 438.94c-16.406 0.42188-32.672 0.65625-48.938 0.65625l0.046874 0.046875c-69 0-138-3.7031-206.58-11.062h-0.5625c-40.875-4.6875-81.094-25.031-113.2-57.141-32.109-32.062-52.406-72.281-57.094-113.16v-0.60938h-0.09375c-9.0938-85.266-12.562-171.05-10.406-256.82v0.046875c-128.95-3.1406-258 2.1562-386.29 15.844-85.641 9.9844-167.81 92.109-177.74 177.79-22.5 210.28-22.5 600.61 0 810.94 9.9375 85.688 92.109 167.86 177.74 177.79 209.68 22.453 421.08 22.453 630.71 0 85.688-9.9375 167.81-92.109 177.79-177.79 15.281-143.29 20.156-370.03 14.625-566.53zm-477.28 505.6c-1.875 8.7188-8.6719 15.516-17.438 17.391-14.156 2.2031-28.594 2.2031-42.75 0-8.7188-1.875-15.516-8.6719-17.391-17.391-2.2031-14.156-2.2031-28.594 0-42.75 1.875-8.7656 8.6719-15.562 17.391-17.438 14.156-2.2031 28.594-2.2031 42.75 0 8.7656 1.875 15.562 8.6719 17.438 17.438 2.2031 14.156 2.2031 28.594 0 42.75zm39.844-199.22c-37.5 23.109-46.875 34.969-46.875 58.125v7.0312c0 19.969-16.219 36.234-36.234 36.234s-36.234-16.219-36.234-36.234v-16.406c0-38.109 18.141-63.75 61.219-89.344 42.469-24.984 56.25-41.859 56.25-67.5 0-30-24.984-49.359-61.875-49.359-39.844 0-65.344 19.031-76.312 53.625v-0.046875c-7.3125 19.828-28.922 30.328-48.984 23.859-20.109-6.4219-31.547-27.562-26.016-47.906 19.875-61.875 75.234-101.39 151.4-101.39 78.094 0 139.97 50.625 139.97 120 0 45.562-23.156 76.781-76.312 109.31z"/>
 <path d="m859.22 363.28c81.797 8.7188 164.06 12.094 246.28 10.031l-0.1875-0.32812-0.046875 0.046875c-97.078-146.63-222.42-272.34-368.72-369.79l-0.046875-0.046875c-2.1094 82.688 1.2188 165.37 10.031 247.6 6.2812 54.188 58.406 106.27 112.69 112.5z"/>
</svg>
