<?xml version="1.0" encoding="UTF-8"?>
<svg version="1.1" viewBox="0 0 1200 1200" xmlns="http://www.w3.org/2000/svg">
 <path d="m771.71 801.61 142.22 179.16-47.531 37.734-142.22-179.11c8.6719-5.0625 17.156-10.641 25.219-17.062 8.0625-6.375 15.375-13.406 22.312-20.719zm-208.03-487.26c-5.3438 0-10.219-3-12.656-7.8281l-62.531-125.06-386.29 0.046874v764.21h670.26l-74.109-93.375c-26.391 10.969-54.375 16.5-82.219 16.5-63.328 0-126.05-27.797-168.37-81.141-35.672-44.906-51.703-101.02-45.141-158.02 6.5625-56.953 34.875-108 79.828-143.68 44.953-35.676 101.16-51.656 158.02-45.141 57 6.5625 108 34.875 143.68 79.828 35.672 44.906 51.703 101.02 45.141 158.02-4.2656 36.984-17.812 71.391-39 100.78l131.95 166.22h175.69v-631.36zm168.14 485.86c-80.484 63.891-198.05 50.391-261.94-30.094-30.984-39-44.906-87.75-39.188-137.21 5.6719-49.453 30.281-93.797 69.328-124.74 33.281-26.438 73.688-40.453 115.55-40.453 7.1719 0 14.438 0.42188 21.656 1.2188 49.5 5.6719 93.797 30.281 124.74 69.328 30.984 39 44.906 87.75 39.188 137.21-5.6719 49.453-30.281 93.75-69.328 124.74zm2.9531-240.37c-25.219-31.734-61.266-51.797-101.53-56.391-40.219-4.6875-79.922 6.7031-111.66 31.922-65.531 52.031-76.547 147.66-24.516 213.19 25.219 31.734 61.266 51.797 101.53 56.391 5.9062 0.70312 11.766 1.0312 17.625 1.0312 34.078 0 66.938-11.391 94.031-32.906 65.531-52.078 76.5-147.71 24.516-213.24zm-42.094 191.02c-53.344 42.328-131.16 33.375-173.48-19.922-42.328-53.344-33.375-131.16 19.969-173.48 22.031-17.484 48.75-26.766 76.5-26.766 4.7812 0 9.5625 0.28125 14.344 0.84375 32.766 3.75 62.109 20.062 82.594 45.891 42.328 53.297 33.375 131.16-19.922 173.44zm-91.547-148.87c0 7.7812 6.3281 14.109 14.109 14.109h42.188c7.8281 0 14.109-6.3281 14.109-14.109s-6.3281-14.109-14.109-14.109h-42.188c-7.7812-0.046875-14.109 6.2812-14.109 14.109zm-55.5 0c0 7.7812 6.3281 14.109 14.109 14.109h9.1875c7.8281 0 14.109-6.3281 14.109-14.109s-6.3281-14.109-14.109-14.109h-9.1875c-7.7812-0.046875-14.109 6.2812-14.109 14.109zm23.297 73.406c7.8281 0 14.109-6.3281 14.109-14.109s-6.3281-14.109-14.109-14.109h-43.594c-7.8281 0-14.109 6.3281-14.109 14.109s6.3281 14.109 14.109 14.109zm61.125 43.453c0-7.7812-6.3281-14.109-14.109-14.109h-31.312c-7.8281 0-14.109 6.3281-14.109 14.109s6.3281 14.109 14.109 14.109h31.312c7.7812 0 14.109-6.3281 14.109-14.109zm57.656-57.562c0-7.7812-6.3281-14.109-14.109-14.109h-57.656c-7.8281 0-14.109 6.3281-14.109 14.109s6.3281 14.109 14.109 14.109h57.656c7.7812 0 14.109-6.3281 14.109-14.109z"/>
</svg>
