<?xml version="1.0" encoding="UTF-8"?>
<svg width="1200pt" height="1200pt" version="1.1" viewBox="0 0 1200 1200" xmlns="http://www.w3.org/2000/svg">
 <path d="m987.6 93.75h-541.69v183.19c0 32.625-27.488 59.137-61.238 59.137h-197.18v748.54c0 11.926 11.137 21.637 24.898 21.637h333.38l-182.4-208.88c-0.039062 0-0.039062 0-0.039062-0.039062-13.836-15.898-17.289-38.926-8.7383-58.688 8.2109-19.012 25.461-30.789 45.039-30.789h78.711v-239.02c0-29.324 22.273-53.176 49.648-53.176h144.07c27.375 0 49.648 23.852 49.648 53.176v239.02h78.711c19.574 0 36.824 11.773 45.039 30.789 8.5508 19.762 5.1016 42.824-8.7383 58.688l-182.47 208.91h333.38c13.727 0 24.898-9.7109 24.898-21.637l0.003906-969.23c-0.039062-11.926-11.176-21.637-24.938-21.637z"/>
 <path d="m812.21 853.91c-1.0859-2.5859-4.4609-8.5859-11.812-8.5859h-94.461c-10.051 0-20.586-11.023-20.586-21.375v-255.15c0-8.625-5.9609-15.676-13.273-15.676h-144.07c-7.3125 0-13.273 7.0508-13.273 15.676v255.15c0 10.352-10.539 21.375-20.586 21.375h-94.461c-7.3516 0-10.727 5.9609-11.812 8.5859-2.1758 4.9883-2.5859 12.414 2.5508 18.336l200.44 229.54c5.0234 5.7734 13.461 5.7383 18.414 0.039063l200.48-229.57c5.0508-5.9297 4.6367-13.391 2.4609-18.34z"/>
 <path d="m384.68 298.57c13.727 0 24.898-9.7109 24.898-21.637v-159.56l-193.24 181.2z"/>
</svg>
