<?xml version="1.0" encoding="UTF-8"?>
<svg width="1200pt" height="1200pt" version="1.1" viewBox="0 0 1200 1200" xmlns="http://www.w3.org/2000/svg">
 <path d="m875.64 681.36-189.72-82.801c-45.961-19.922-82.559-56.52-102.48-102.48l-82.801-189.72c-6.4805-14.762-27.359-14.762-33.719 0l-82.801 189.72c-20.039 45.961-56.641 82.559-102.48 102.48l-190.08 82.922c-14.641 6.4805-14.762 27.238 0 33.719l193.44 85.441c45.719 20.281 82.199 57 102 103.08l80.039 186.12c6.3594 14.762 27.359 14.879 33.84 0l82.68-189.6c19.922-45.84 56.52-82.441 102.48-102.48l189.72-82.801c14.762-6.3594 14.762-27.238 0-33.719zm-210.84-6.9609c-3 6.7188-9.6016 10.801-16.559 10.801-2.3984 0-4.8008-0.48047-7.1992-1.4414-64.078-28.078-114.72-78.719-142.68-142.8-4.0781-9.1211 0.12109-19.801 9.2383-23.762 9.1211-3.9609 19.68 0.23828 23.762 9.3594 24.238 55.68 68.398 99.84 124.08 124.2 9.1211 3.9609 13.32 14.52 9.3594 23.641z"/>
 <path d="m1113.1 322.08-109.56-47.762c-26.52-11.641-47.641-32.762-59.281-59.281l-47.762-109.56c-3.7188-8.5195-15.84-8.5195-19.559 0l-47.762 109.56c-11.641 26.52-32.762 47.641-59.281 59.281l-109.68 47.879c-8.5195 3.7188-8.5195 15.719-0.12109 19.441l111.72 49.32c26.398 11.762 47.52 33 58.922 59.52l46.32 107.64c3.6016 8.5195 15.719 8.5195 19.441 0l47.762-109.44c11.641-26.52 32.762-47.641 59.281-59.281l109.56-47.762c8.5195-3.7188 8.5195-15.84 0-19.559zm-149.28 15.84c-3.4805 5.6406-9.3594 8.6406-15.48 8.6406-3.1211 0-6.3594-0.83984-9.2383-2.5195-24.84-15.121-45.359-34.922-61.199-59.16-5.3984-8.3984-3-19.441 5.2812-24.961 8.2812-5.3984 19.441-3.1211 24.84 5.2812 12.961 19.68 29.641 35.762 49.68 48 8.5195 5.1602 11.281 16.199 6.1211 24.719z"/>
</svg>
